<svg xmlns="http://www.w3.org/2000/svg" viewBox="0 0 612 612">
  <rect width="612" height="612" fill="#000000"/>
  <polygon fill="#ffffff" points="348.77 232.17 144.73 40.09 144.73 40.09 110.85 40.09 110.85 40.09 76.97 40.09 76.96 40.09 43.09 40.09 43.1 572.91 76.98 572.91 76.98 572.91 110.86 572.91 110.86 572.91 144.74 572.91 144.74 572.9 218.47 512.87 218.46 403.97 144.74 464 144.73 149 348.77 341.08 348.77 232.17"/>
  <polygon fill="#f26722" points="76.98 423.49 43.1 394.87 43.09 40.09 76.97 40.09 76.98 423.49"/>
  <polygon fill="#ffffff" points="270.23 380.83 474.27 572.91 474.27 572.91 508.15 572.91 508.15 572.91 542.03 572.91 542.04 572.91 575.91 572.91 575.9 40.09 542.02 40.09 542.02 40.09 508.14 40.09 508.14 40.09 474.26 40.09 474.26 40.1 400.53 100.13 400.54 209.03 474.26 149 474.27 464 270.23 271.92 270.23 380.83"/>
  <polygon fill="#f26722" points="542.02 189.51 575.9 218.13 575.91 572.91 542.03 572.91 542.02 189.51"/>
</svg>
